<?xml version="1.0" encoding="UTF-8"?>
<svg width="1361px" height="697px" viewBox="0 0 1361 697" version="1.1" xmlns="http://www.w3.org/2000/svg" xmlns:xlink="http://www.w3.org/1999/xlink">
    <!-- Generator: Sketch 54.1 (76490) - https://sketchapp.com -->
    <title>Group 5@1x</title>
    <desc>Created with Sketch.</desc>
    <g id="Page-1" stroke="none" stroke-width="1" fill="none" fill-rule="evenodd">
        <g id="Group-5">
            <g id="Group">
                <rect id="Rectangle" stroke="#1E252B" stroke-width="12" fill="#1E252B" x="822.452667" y="381.348589" width="116.717619" height="1" rx="0.5"></rect>
                <rect id="Rectangle-Copy-44" stroke="#1E252B" stroke-width="12" x="615.547073" y="591.61823" width="126.823548" height="1" rx="0.5"></rect>
                <rect id="Rectangle-Copy-39" fill="#1E252B" x="720.180399" y="375.614416" width="92.017141" height="1.59496568" rx="0.797482838"></rect>
                <rect id="Rectangle-Copy-40" fill="#1E252B" x="720.71229" y="399.538902" width="90.953359" height="1.59496568" rx="0.797482838"></rect>
                <rect id="Rectangle-Copy-41" fill="#1E252B" x="720.180399" y="423.463387" width="92.017141" height="1.59496568" rx="0.797482838"></rect>
                <rect id="Rectangle-Copy-41" fill="#1E252B" x="720.71229" y="448.451182" width="90.953359" height="1.59496568" rx="0.797482838"></rect>
                <rect id="Rectangle-Copy-41" fill="#1E252B" x="720.71229" y="471.844012" width="90.953359" height="1.59496568" rx="0.797482838"></rect>
                <path d="M723.095444,500.402658 L812.984929,500.408149 C813.425386,500.408176 813.78244,500.76523 813.782467,501.205687 L813.782467,501.205687 C813.782494,501.646075 813.425511,502.003101 812.985124,502.003128 C812.985091,502.003128 812.985059,502.003128 812.985026,502.003128 L723.095541,501.997637 C722.655084,501.99761 722.298029,501.640556 722.298003,501.200099 L722.298003,501.200099 C722.297976,500.759711 722.654958,500.402685 723.095346,500.402658 C723.095379,500.402658 723.095411,500.402658 723.095444,500.402658 Z" id="Rectangle-Copy-42" fill="#1E252B" transform="translate(768.040235, 501.202893) rotate(-8.000000) translate(-768.040235, -501.202893) "></path>
                <path d="M728.932057,526.43439 L817.754665,526.445962 C818.195155,526.446019 818.552228,526.803092 818.552285,527.243582 L818.552285,527.243582 C818.552343,527.683924 818.195422,528.040938 817.75508,528.040995 C817.755011,528.040995 817.754942,528.040995 817.754873,528.040995 L728.932265,528.029424 C728.491775,528.029366 728.134702,527.672293 728.134644,527.231803 L728.134644,527.231803 C728.134587,526.791462 728.491508,526.434448 728.931849,526.43439 C728.931919,526.43439 728.931988,526.43439 728.932057,526.43439 Z" id="Rectangle-Copy-42" fill="#1E252B" transform="translate(773.343465, 527.237693) rotate(-18.000000) translate(-773.343465, -527.237693) "></path>
                <rect id="Rectangle-Copy-43" fill="#1E252B" x="948.549003" y="471.782347" width="99.9955059" height="1.59496568" rx="0.797482838"></rect>
                <path d="M948.288817,500.914526 L1047.75264,500.909942 C1048.19304,500.909922 1048.55007,501.26692 1048.55009,501.707319 C1048.55009,501.707343 1048.55009,501.707368 1048.55009,501.707392 L1048.55009,501.707392 C1048.55007,502.147844 1048.19302,502.504896 1047.75257,502.504916 L948.288744,502.509499 C947.848344,502.509519 947.491314,502.152522 947.491294,501.712123 C947.491294,501.712098 947.491294,501.712074 947.491294,501.712049 L947.491294,501.712049 C947.491314,501.271597 947.848365,500.914546 948.288817,500.914526 Z" id="Rectangle-Copy-43" fill="#1E252B" transform="translate(998.020693, 501.709721) rotate(6.000000) translate(-998.020693, -501.709721) "></path>
                <path d="M738.909007,551.271338 L830.382516,551.289861 C830.823064,551.28995 831.180176,551.647062 831.180265,552.08761 L831.180265,552.08761 C831.180355,552.527927 830.823479,552.884947 830.383162,552.885036 C830.383054,552.885036 830.382947,552.885036 830.382839,552.885036 L738.90933,552.866513 C738.468782,552.866424 738.11167,552.509312 738.111581,552.068764 L738.111581,552.068764 C738.111492,551.628447 738.468367,551.271427 738.908684,551.271338 C738.908792,551.271338 738.9089,551.271338 738.909007,551.271338 Z" id="Rectangle-Copy-42" fill="#1E252B" transform="translate(784.645923, 552.078187) rotate(-33.000000) translate(-784.645923, -552.078187) "></path>
                <path d="M755.284381,576.323506 L845.685085,576.343533 C846.125681,576.343631 846.48283,576.70078 846.482928,577.141376 L846.482928,577.141376 C846.483025,577.581719 846.126136,577.938767 845.685792,577.938865 C845.685674,577.938865 845.685556,577.938865 845.685439,577.938865 L755.284735,577.918837 C754.844139,577.91874 754.48699,577.561591 754.486892,577.120995 L754.486892,577.120995 C754.486795,576.680651 754.843684,576.323603 755.284028,576.323506 C755.284146,576.323506 755.284263,576.323506 755.284381,576.323506 Z" id="Rectangle-Copy-42" fill="#1E252B" transform="translate(800.484910, 577.131185) rotate(-46.000000) translate(-800.484910, -577.131185) "></path>
                <path d="M781.884863,593.607538 L870.681397,593.62492 C871.122029,593.625006 871.47921,593.982187 871.479296,594.422819 L871.479296,594.422819 C871.479382,594.863227 871.12243,595.220319 870.682022,595.220405 C870.681918,595.220405 870.681813,595.220405 870.681709,595.220405 L781.885175,595.203023 C781.444543,595.202937 781.087362,594.845756 781.087276,594.405125 L781.087276,594.405125 C781.08719,593.964716 781.444142,593.607624 781.88455,593.607538 C781.884654,593.607538 781.884758,593.607538 781.884863,593.607538 Z" id="Rectangle-Copy-42" fill="#1E252B" transform="translate(826.283286, 594.413972) rotate(-59.000000) translate(-826.283286, -594.413972) "></path>
                <path d="M812.061078,599.079233 L899.255254,599.090044 C899.695902,599.090099 900.053105,599.447301 900.053159,599.887949 L900.053159,599.887949 C900.053214,600.328456 899.696157,600.685602 899.25565,600.685656 C899.255584,600.685656 899.255518,600.685656 899.255452,600.685656 L812.061276,600.674846 C811.620628,600.674791 811.263426,600.317589 811.263371,599.876941 L811.263371,599.876941 C811.263316,599.436434 811.620374,599.079288 812.060881,599.079233 C812.060947,599.079233 812.061013,599.079233 812.061078,599.079233 Z" id="Rectangle-Copy-42" fill="#1E252B" transform="translate(855.658265, 599.882445) rotate(-73.000000) translate(-855.658265, -599.882445) "></path>
                <path d="M838.657431,601.210898 L925.848192,601.211567 C926.288825,601.21157 926.646027,601.568774 926.646029,602.009406 L926.646029,602.009406 C926.64603,602.450032 926.288834,602.807232 925.848208,602.807233 C925.848205,602.807233 925.848202,602.807233 925.848199,602.807233 L838.657437,602.806565 C838.216804,602.806561 837.859602,602.449358 837.8596,602.008725 L837.8596,602.008725 C837.859599,601.568099 838.216795,601.2109 838.657421,601.210898 C838.657424,601.210898 838.657428,601.210898 838.657431,601.210898 Z" id="Rectangle-Copy-42" fill="#1E252B" transform="translate(882.252815, 602.009066) rotate(-89.000000) translate(-882.252815, -602.009066) "></path>
                <path d="M864.719162,601.215485 L951.911939,601.20701 C952.352477,601.206967 952.709638,601.564058 952.70968,602.004596 C952.70968,602.004647 952.70968,602.004699 952.70968,602.004751 L952.70968,602.004751 C952.709638,602.445399 952.352433,602.802604 951.911784,602.802647 L864.719007,602.811122 C864.278469,602.811165 863.921308,602.454073 863.921266,602.013536 C863.921266,602.013484 863.921266,602.013432 863.921266,602.013381 L863.921266,602.013381 C863.921308,601.572733 864.278514,601.215527 864.719162,601.215485 Z" id="Rectangle-Copy-42" fill="#1E252B" transform="translate(908.315473, 602.009066) rotate(-103.000000) translate(-908.315473, -602.009066) "></path>
                <path d="M892.124635,594.370132 L980.387633,594.353909 C980.828061,594.353828 981.185164,594.7108 981.185245,595.151228 C981.185245,595.151326 981.185245,595.151424 981.185245,595.151521 L981.185245,595.151521 C981.185164,595.592159 980.827977,595.949345 980.38734,595.949426 L892.124342,595.965649 C891.683914,595.96573 891.326811,595.608758 891.32673,595.168331 C891.32673,595.168233 891.32673,595.168135 891.32673,595.168037 L891.32673,595.168037 C891.326811,594.7274 891.683998,594.370213 892.124635,594.370132 Z" id="Rectangle-Copy-42" fill="#1E252B" transform="translate(936.255988, 595.159779) rotate(-118.000000) translate(-936.255988, -595.159779) "></path>
                <path d="M914.430718,579.903417 L1003.2354,579.883779 C1003.67575,579.883681 1004.0328,580.240575 1004.0329,580.680922 C1004.0329,580.681039 1004.0329,580.681157 1004.0329,580.681274 L1004.0329,580.681274 C1004.0328,581.121874 1003.67565,581.479025 1003.23505,581.479123 L914.430365,581.498761 C913.990018,581.498858 913.632967,581.141965 913.63287,580.701618 C913.63287,580.701501 913.63287,580.701383 913.63287,580.701266 L913.63287,580.701266 C913.632967,580.260666 913.990119,579.903515 914.430718,579.903417 Z" id="Rectangle-Copy-42" fill="#1E252B" transform="translate(958.832885, 580.691270) rotate(-133.000000) translate(-958.832885, -580.691270) "></path>
                <path d="M932.029495,558.368224 L1021.90688,558.349753 C1022.3472,558.349662 1022.70422,558.706537 1022.70431,559.146855 C1022.70431,559.146964 1022.70431,559.147073 1022.70431,559.147182 L1022.70431,559.147182 C1022.70422,559.587734 1022.3471,559.944849 1021.90655,559.94494 L932.029167,559.963411 C931.58885,559.963502 931.231828,559.606627 931.231738,559.166309 C931.231738,559.1662 931.231738,559.166091 931.231738,559.165982 L931.231738,559.165982 C931.231828,558.72543 931.588943,558.368315 932.029495,558.368224 Z" id="Rectangle-Copy-42" fill="#1E252B" transform="translate(976.968023, 559.156582) rotate(-146.000000) translate(-976.968023, -559.156582) "></path>
                <path d="M943.059411,531.041583 L1037.73114,531.027542 C1038.17148,531.027477 1038.52849,531.384384 1038.52855,531.824716 C1038.52855,531.824795 1038.52855,531.824873 1038.52855,531.824952 L1038.52855,531.824952 C1038.52849,532.265453 1038.17141,532.622534 1037.73091,532.622599 L943.059174,532.636639 C942.618842,532.636705 942.26183,532.279798 942.261764,531.839466 C942.261764,531.839387 942.261764,531.839308 942.261764,531.839229 L942.261764,531.839229 C942.26183,531.398728 942.61891,531.041648 943.059411,531.041583 Z" id="Rectangle-Copy-42" fill="#1E252B" transform="translate(990.395159, 531.832091) rotate(-159.000000) translate(-990.395159, -531.832091) "></path>
                <rect id="Rectangle" fill="#1E252B" x="0" y="299.056064" width="32.9772413" height="6.3798627" rx="1.5"></rect>
                <path d="M461.592071,528.198051 L487.301453,528.198051 C488.12988,528.198051 488.801453,528.869624 488.801453,529.698051 L488.801453,533.080743 C488.801453,533.90917 488.12988,534.580743 487.301453,534.580743 L461.592071,534.580743 C460.763644,534.580743 460.092071,533.90917 460.092071,533.080743 L460.092071,529.698051 C460.092071,528.869624 460.763644,528.198051 461.592071,528.198051 Z" id="Rectangle-Copy-30" fill="#1E252B" transform="translate(474.446762, 531.389397) rotate(-90.000000) translate(-474.446762, -531.389397) "></path>
                <path d="M374.631902,564.084661 L418.417562,564.084661 C419.245989,564.084661 419.917562,564.756234 419.917562,565.584661 L419.917562,569.499244 C419.917562,570.327671 419.245989,570.999244 418.417562,570.999244 L374.631902,570.999244 C373.803475,570.999244 373.131902,570.327671 373.131902,569.499244 L373.131902,565.584661 C373.131902,564.756234 373.803475,564.084661 374.631902,564.084661 Z" id="Rectangle-Copy-31" fill="#1E252B" transform="translate(396.524732, 567.541953) rotate(-90.000000) translate(-396.524732, -567.541953) "></path>
                <path d="M553.074492,518.096602 L566.024148,518.096602 C566.852575,518.096602 567.524148,518.768175 567.524148,519.596602 L567.524148,522.979294 C567.524148,523.807721 566.852575,524.479294 566.024148,524.479294 L553.074492,524.479294 C552.246064,524.479294 551.574492,523.807721 551.574492,522.979294 L551.574492,519.596602 C551.574492,518.768175 552.246064,518.096602 553.074492,518.096602 Z" id="Rectangle-Copy-36" fill="#1E252B" transform="translate(559.549320, 521.287948) rotate(-90.000000) translate(-559.549320, -521.287948) "></path>
                <path d="M374.631902,664.567499 L418.417562,664.567499 C419.245989,664.567499 419.917562,665.239072 419.917562,666.067499 L419.917562,669.982082 C419.917562,670.810509 419.245989,671.482082 418.417562,671.482082 L374.631902,671.482082 C373.803475,671.482082 373.131902,670.810509 373.131902,669.982082 L373.131902,666.067499 C373.131902,665.239072 373.803475,664.567499 374.631902,664.567499 Z" id="Rectangle-Copy-32" fill="#1E252B" transform="translate(396.524732, 668.024790) rotate(-90.000000) translate(-396.524732, -668.024790) "></path>
                <rect id="Rectangle" fill="#1E252B" x="29.7858954" y="299.321892" width="89.3576861" height="5.84820748" rx="1.5"></rect>
                <path d="M195.10832,299.587719 L330.431868,299.587719 C331.536437,299.587719 332.431868,300.48315 332.431868,301.587719 L332.431868,304.467582 C332.431868,305.296009 331.760295,305.967582 330.931868,305.967582 L195.60832,305.967582 C194.50375,305.967582 193.60832,305.072151 193.60832,303.967582 L193.60832,301.087719 C193.60832,300.259292 194.279893,299.587719 195.10832,299.587719 Z" id="Rectangle-Copy-8" fill="#1E252B"></path>
                <rect id="Rectangle-Copy-9" fill="#1E252B" x="371.25991" y="300.119375" width="123.9306" height="6.3798627" rx="1.5"></rect>
                <rect id="Rectangle-Copy-14" fill="#1E252B" x="633" y="375" width="84.0387762" height="6.3798627" rx="1.5"></rect>
                <rect id="Rectangle-Copy-68" fill="#1E252B" x="1165.03878" y="375" width="42" height="7" rx="1.5"></rect>
                <rect id="Rectangle-Copy-18" fill="#1E252B" x="523.912624" y="459.615942" width="194.672102" height="6.91151793" rx="1.5"></rect>
                <path d="M673.809306,416.690694 L762.690694,416.690694 L762.690694,423.690694 L673.809306,423.690694 C672.980879,423.690694 672.309306,423.019121 672.309306,422.190694 L672.309306,418.190694 C672.309306,417.362267 672.980879,416.690694 673.809306,416.690694 Z" id="Rectangle-Copy-15" fill="#1E252B" transform="translate(717.500000, 420.190694) rotate(-90.000000) translate(-717.500000, -420.190694) "></path>
                <path d="M760.79867,426.917731 L868.819646,426.917731 L868.819646,433.300423 L760.79867,433.300423 C759.970243,433.300423 759.29867,432.62885 759.29867,431.800423 L759.29867,428.417731 C759.29867,427.589304 759.970243,426.917731 760.79867,426.917731 Z" id="Rectangle-Copy-37" fill="#1E252B" transform="translate(814.059158, 430.109077) rotate(-90.000000) translate(-814.059158, -430.109077) "></path>
                <path d="M891.484262,428.208166 L1000.04676,428.208166 C1000.87519,428.208166 1001.54676,428.879739 1001.54676,429.708166 L1001.54676,433.083166 C1001.54676,433.911594 1000.87519,434.583166 1000.04676,434.583166 L891.484262,434.583166 C890.655835,434.583166 889.984262,433.911594 889.984262,433.083166 L889.984262,429.708166 C889.984262,428.879739 890.655835,428.208166 891.484262,428.208166 Z" id="Rectangle-Copy-38" fill="#1E252B" transform="translate(945.765512, 431.395666) rotate(-90.000000) translate(-945.765512, -431.395666) "></path>
                <path d="M427.831846,432.234165 L520.529787,432.234165 C521.358214,432.234165 522.029787,432.905738 522.029787,433.734165 L522.029787,437.648748 C522.029787,438.477175 521.358214,439.148748 520.529787,439.148748 L427.831846,439.148748 C427.003419,439.148748 426.331846,438.477175 426.331846,437.648748 L426.331846,433.734165 C426.331846,432.905738 427.003419,432.234165 427.831846,432.234165 Z" id="Rectangle-Copy-22" fill="#1E252B" transform="translate(474.180816, 435.691457) rotate(-90.000000) translate(-474.180816, -435.691457) "></path>
                <path d="M352.638108,479.818841 L476.138108,479.818841 C476.966535,479.818841 477.638108,480.490413 477.638108,481.318841 L477.638108,484.698703 C477.638108,485.52713 476.966535,486.198703 476.138108,486.198703 L354.138108,486.198703 C353.309681,486.198703 352.638108,485.52713 352.638108,484.698703 L352.638108,479.818841 Z" id="Rectangle-Copy-23" fill="#1E252B" transform="translate(415.138108, 483.008772) rotate(-180.000000) translate(-415.138108, -483.008772) "></path>
                <path d="M7.85080087,539.364226 L106.473871,539.364226 C107.302298,539.364226 107.973871,540.035799 107.973871,540.864226 L107.973871,544.775744 C107.973871,545.604171 107.302298,546.275744 106.473871,546.275744 L7.35080087,546.275744 C6.52237375,546.275744 5.85080087,545.604171 5.85080087,544.775744 L5.85080087,541.364226 C5.85080087,540.259656 6.74623137,539.364226 7.85080087,539.364226 Z" id="Rectangle-Copy-28" fill="#1E252B" transform="translate(56.912336, 542.819985) rotate(-180.000000) translate(-56.912336, -542.819985) "></path>
                <path d="M524.348842,526.072845 L611.238419,526.072845 C612.066846,526.072845 612.738419,526.744418 612.738419,527.572845 L612.738419,532.452708 L524.348842,532.452708 C523.520415,532.452708 522.848842,531.781135 522.848842,530.952708 L522.848842,527.572845 C522.848842,526.744418 523.520415,526.072845 524.348842,526.072845 Z" id="Rectangle-Copy-29" fill="#1E252B" transform="translate(567.793630, 529.262777) rotate(-180.000000) translate(-567.793630, -529.262777) "></path>
                <path d="M635.259547,437.01918 L683.830104,437.01918 C684.658531,437.01918 685.330104,437.690753 685.330104,438.51918 L685.330104,441.901872 C685.330104,442.730299 684.658531,443.401872 683.830104,443.401872 L635.259547,443.401872 C634.43112,443.401872 633.759547,442.730299 633.759547,441.901872 L633.759547,438.51918 C633.759547,437.690753 634.43112,437.01918 635.259547,437.01918 Z" id="Rectangle-Copy-17" fill="#1E252B" transform="translate(659.544826, 440.210526) rotate(-90.000000) translate(-659.544826, -440.210526) "></path>
                <path d="M549.366697,414.423715 L631.963188,414.423715 C632.791616,414.423715 633.463188,415.095288 633.463188,415.923715 L633.463188,419.838298 C633.463188,420.666725 632.791616,421.338298 631.963188,421.338298 L549.366697,421.338298 C548.53827,421.338298 547.866697,420.666725 547.866697,419.838298 L547.866697,415.923715 C547.866697,415.095288 548.53827,414.423715 549.366697,414.423715 Z" id="Rectangle-Copy-19" fill="#1E252B" transform="translate(590.664943, 417.881007) rotate(-90.000000) translate(-590.664943, -417.881007) "></path>
                <path d="M324.473453,507.033555 L383.473453,507.033555 C384.30188,507.033555 384.973453,507.705128 384.973453,508.533555 L384.973453,512.448138 C384.973453,513.276565 384.30188,513.948138 383.473453,513.948138 L324.473453,513.948138 C323.645026,513.948138 322.973453,513.276565 322.973453,512.448138 L322.973453,508.533555 C322.973453,507.705128 323.645026,507.033555 324.473453,507.033555 Z" id="Rectangle-Copy-20" fill="#1E252B" transform="translate(353.973453, 510.490847) rotate(-90.000000) translate(-353.973453, -510.490847) "></path>
                <path d="M179.191906,448.449768 L358.017993,448.449768 C358.84642,448.449768 359.517993,449.121341 359.517993,449.949768 L359.517993,453.33246 C359.517993,454.160887 358.84642,454.83246 358.017993,454.83246 L179.191906,454.83246 C178.363479,454.83246 177.691906,454.160887 177.691906,453.33246 L177.691906,449.949768 C177.691906,449.121341 178.363479,448.449768 179.191906,448.449768 Z" id="Rectangle-Copy-24" fill="#1E252B" transform="translate(268.604949, 451.641114) rotate(-90.000000) translate(-268.604949, -451.641114) "></path>
                <path d="M172.004187,615.655336 L318.399305,615.655336 C319.227732,615.655336 319.899305,616.326909 319.899305,617.155336 L319.899305,620.538028 C319.899305,621.366455 319.227732,622.038028 318.399305,622.038028 L172.004187,622.038028 C171.175759,622.038028 170.504187,621.366455 170.504187,620.538028 L170.504187,617.155336 C170.504187,616.326909 171.175759,615.655336 172.004187,615.655336 Z" id="Rectangle-Copy-34" fill="#1E252B" transform="translate(245.201746, 618.846682) rotate(-90.000000) translate(-245.201746, -618.846682) "></path>
                <path d="M528.374568,610.870321 L690.187687,610.870321 C691.016114,610.870321 691.687687,611.541894 691.687687,612.370321 L691.687687,617.784904 L528.374568,617.784904 C527.54614,617.784904 526.874568,617.113331 526.874568,616.284904 L526.874568,612.370321 C526.874568,611.541894 527.54614,610.870321 528.374568,610.870321 Z" id="Rectangle-Copy-35" fill="#1E252B" transform="translate(609.281127, 614.327613) rotate(-90.000000) translate(-609.281127, -614.327613) "></path>
                <path d="M-194.149327,494.702153 L200.532019,494.702153 C201.360446,494.702153 202.032019,495.373726 202.032019,496.202153 L202.032019,499.584845 C202.032019,500.413272 201.360446,501.084845 200.532019,501.084845 L-194.149327,501.084845 C-194.977755,501.084845 -195.649327,500.413272 -195.649327,499.584845 L-195.649327,496.202153 C-195.649327,495.373726 -194.977755,494.702153 -194.149327,494.702153 Z" id="Rectangle-Copy-25" fill="#1E252B" transform="translate(3.191346, 497.893499) rotate(-90.000000) translate(-3.191346, -497.893499) "></path>
                <rect id="Rectangle-Copy-21" fill="#1E252B" transform="translate(372.106217, 391.298246) rotate(-180.000000) translate(-372.106217, -391.298246) " x="267.106217" y="387.842487" width="210" height="6.91151793" rx="1.5"></rect>
                <path d="M186.598064,539.364226 L475.106217,539.364226 C476.210786,539.364226 477.106217,540.259656 477.106217,541.364226 L477.106217,544.244088 C477.106217,545.072516 476.434644,545.744088 475.606217,545.744088 L186.598064,545.744088 C185.769637,545.744088 185.098064,545.072516 185.098064,544.244088 L185.098064,540.864226 C185.098064,540.035799 185.769637,539.364226 186.598064,539.364226 Z" id="Rectangle-Copy-27" fill="#1E252B" transform="translate(331.102140, 542.554157) rotate(-180.000000) translate(-331.102140, -542.554157) "></path>
                <rect id="Rectangle-Copy-33" fill="#1E252B" transform="translate(308.496773, 693.544241) rotate(-180.000000) translate(-308.496773, -693.544241) " x="4.7870189" y="690.35431" width="607.419509" height="6.3798627" rx="1.5"></rect>
                <path d="M921.67141,299.056064 L1029.83663,299.056064 C1030.66505,299.056064 1031.33663,299.727637 1031.33663,300.556064 L1031.33663,303.435927 C1031.33663,304.540496 1030.4412,305.435927 1029.33663,305.435927 L921.67141,305.435927 C920.842983,305.435927 920.17141,304.764354 920.17141,303.935927 L920.17141,300.556064 C920.17141,299.727637 920.842983,299.056064 921.67141,299.056064 Z" id="Rectangle-Copy-11" fill="#1E252B"></path>
                <path d="M1334.76109,297.464435 L1360,297.464435 L1360,303.844298 L1334.76109,303.844298 C1333.65652,303.844298 1332.76109,302.948867 1332.76109,301.844298 L1332.76109,299.464435 C1332.76109,298.359866 1333.65652,297.464435 1334.76109,297.464435 Z" id="Rectangle-Copy-47" fill="#1E252B"></path>
                <path d="M1107.83326,297.929443 L1271.83326,297.929443 C1272.66168,297.929443 1273.33326,298.601016 1273.33326,299.429443 L1273.33326,302.309306 C1273.33326,303.413875 1272.43783,304.309306 1271.33326,304.309306 L1108.33326,304.309306 C1107.22869,304.309306 1106.33326,303.413875 1106.33326,302.309306 L1106.33326,299.429443 C1106.33326,298.601016 1107.00483,297.929443 1107.83326,297.929443 Z" id="Rectangle-Copy-12" fill="#1E252B"></path>
                <rect id="Rectangle-Copy-26" fill="#1E252B" transform="translate(1091.500000, 463.500000) rotate(90.000000) translate(-1091.500000, -463.500000) " x="1009" y="460" width="165" height="7"></rect>
                <path d="M1122,455 L1287,455 L1287,462 L1120,462 L1120,457 C1120,455.895431 1120.89543,455 1122,455 Z" id="Rectangle-Copy-46" fill="#1E252B" transform="translate(1203.500000, 458.500000) rotate(90.000000) translate(-1203.500000, -458.500000) "></path>
                <rect id="Rectangle-Copy-48" fill="#1E252B" transform="translate(1225.500000, 542.500000) rotate(180.000000) translate(-1225.500000, -542.500000) " x="1091" y="539" width="269" height="7"></rect>
                <rect id="Rectangle-Copy-10" fill="#1E252B" x="569.655249" y="300.119375" width="277.115205" height="6.3798627" rx="1.5"></rect>
                <path d="M943,375 L1129.5,375 C1130.32843,375 1131,375.671573 1131,376.5 L1131,380.5 C1131,381.328427 1130.32843,382 1129.5,382 L944.5,382 C943.671573,382 943,381.328427 943,380.5 L943,375 Z" id="Rectangle-Copy-13" fill="#1E252B"></path>
                <rect id="Rectangle" fill="#1E252B" x="29.7858954" y="0.265827613" width="6.38269186" height="305.170099" rx="2"></rect>
                <rect id="Rectangle-Copy-3" fill="#1E252B" x="278.710878" y="5.05072464" width="6.38269186" height="298.258581" rx="2"></rect>
                <rect id="Rectangle-Copy-4" fill="#1E252B" x="422.853336" y="5.05072464" width="6.38269186" height="298.258581" rx="2"></rect>
                <rect id="Rectangle-Copy-5" fill="#1E252B" x="670.182646" y="3.91495042" width="6.38269186" height="192" rx="2"></rect>
                <rect id="Rectangle-Copy-6" fill="#1E252B" x="942.510832" y="3.98741419" width="6.38269186" height="112.710908" rx="2"></rect>
                <rect id="Rectangle-Copy-7" fill="#1E252B" x="942.510832" y="190.598398" width="6.38269186" height="112.710908" rx="2"></rect>
                <rect id="Rectangle-Copy-16" fill="#1E252B" x="670.182646" y="237.915713" width="6.38269186" height="65.3935927" rx="2"></rect>
                <rect id="Rectangle-Copy-2" fill="#1E252B" x="1147.82075" y="3.98741419" width="6.91458285" height="298.436541" rx="2"></rect>
                <rect id="Rectangle-Copy-45" fill="#1E252B" x="1353.19027" y="3.88842399" width="7" height="541" rx="2"></rect>
                <polygon id="Rectangle-Copy" fill="#1E252B" transform="translate(696.439330, 3.182103) rotate(-90.000000) translate(-696.439330, -3.182103) " points="693.523 -660.279986 699.35566 -660.279986 699.35566 666.644192 693.523 666.644192"></polygon>
                <path d="M814.059158,481.992003 C815.04513,533.739778 837.82304,559.613666 882.392886,559.613666 C926.962732,559.613666 948.065829,533.739778 945.702178,481.992003" id="Path" stroke="#1E252B" stroke-width="6"></path>
                <path d="M716.990335,464.933305 C717.267539,474.509375 717.576844,481.580972 717.918252,486.148098 C725.858867,592.372406 782.558998,645.48456 888.018646,645.48456" id="Path-2" stroke="#1E252B" stroke-width="8"></path>
                <path d="M877.632683,471.367685 C877.729043,477.057502 877.932851,481.984306 878.244108,486.148098 C886.184723,592.372406 942.884854,645.48456 1048.3445,645.48456" id="Path-2" stroke="#1E252B" stroke-width="8" transform="translate(962.982316, 558.033210) scale(-1, 1) translate(-962.982316, -558.033210) "></path>
            </g>
        </g>
    </g>
</svg>